<?xml version="1.0" encoding="UTF-8"?>
<svg version="1.1" xmlns="http://www.w3.org/2000/svg" width="1007" height="1022">
<path d="M0 0 C88.77 0 177.54 0 269 0 C269.33 0.99 269.66 1.98 270 3 C289.14 3.33 308.28 3.66 328 4 C328.33 4.99 328.66 5.98 329 7 C330.61225464 7.02187378 330.61225464 7.02187378 332.25708008 7.04418945 C336.24374717 7.1021489 340.22984801 7.17938129 344.21606445 7.26245117 C345.94155693 7.29571172 347.66715849 7.32374019 349.39282227 7.34643555 C351.87303166 7.37996153 354.3522403 7.43227406 356.83203125 7.48828125 C357.60400345 7.49467117 358.37597565 7.5010611 359.17134094 7.50764465 C364.63271893 7.65767978 364.63271893 7.65767978 366.609375 9.5 C367.06828125 9.995 367.5271875 10.49 368 11 C370.9988613 11.50718056 370.9988613 11.50718056 374.41796875 11.51171875 C375.67158203 11.54716797 376.92519531 11.58261719 378.21679688 11.61914062 C380.18229492 11.65297852 380.18229492 11.65297852 382.1875 11.6875 C383.52282013 11.72067666 384.85810832 11.75516666 386.19335938 11.79101562 C389.46215504 11.87362057 392.73067812 11.94273229 396 12 C396 12.99 396 13.98 396 15 C404.25 15.33 412.5 15.66 421 16 C421.33 16.99 421.66 17.98 422 19 C428.6 19.33 435.2 19.66 442 20 C442.33 20.66 442.66 21.32 443 22 C446.37653644 22.29837403 449.71077953 22.41601614 453.09765625 22.47851562 C457.43566699 22.64049963 459.02668008 23.01895717 462 26 C464.79251583 26.37674518 467.38779201 26.60191941 470.1875 26.6875 C470.93708984 26.72166016 471.68667969 26.75582031 472.45898438 26.79101562 C474.30546838 26.87334294 476.15270994 26.93835281 478 27 C477.34 27.33 476.68 27.66 476 28 C476 28.66 476 29.32 476 30 C482.93 30.495 482.93 30.495 490 31 C490 32.32 490 33.64 490 35 C493.96 35 497.92 35 502 35 C502 36.32 502 37.64 502 39 C505.63 39 509.26 39 513 39 C513.33 39.99 513.66 40.98 514 42 C517.3 42.33 520.6 42.66 524 43 C524 43.99 524 44.98 524 46 C527.96 46.495 527.96 46.495 532 47 C532 47.99 532 48.98 532 50 C534.64 50 537.28 50 540 50 C540 51.32 540 52.64 540 54 C542.64 54 545.28 54 548 54 C548 55.32 548 56.64 548 58 C550.64 58 553.28 58 556 58 C556 58.99 556 59.98 556 61 C556.94875 61.103125 557.8975 61.20625 558.875 61.3125 C562 62 562 62 564 65 C564.99 65.33 565.98 65.66 567 66 C567.33 66.99 567.66 67.98 568 69 C570.01508358 69.73323796 570.01508358 69.73323796 572 70 C572 70.99 572 71.98 572 73 C572.78375 72.938125 573.5675 72.87625 574.375 72.8125 C575.24125 72.874375 576.1075 72.93625 577 73 C577.66 73.99 578.32 74.98 579 76 C581.05003955 77.19232613 581.05003955 77.19232613 583 78 C583 78.66 583 79.32 583 80 C583.99 80.33 584.98 80.66 586 81 C586.33 81.99 586.66 82.98 587 84 C587.99 84.33 588.98 84.66 590 85 C590.33 85.99 590.66 86.98 591 88 C591.99 88.33 592.98 88.66 594 89 C594.33 89.99 594.66 90.98 595 92 C595.99 92.33 596.98 92.66 598 93 C598.33 93.99 598.66 94.98 599 96 C599.99 96.33 600.98 96.66 602 97 C602 97.99 602 98.98 602 100 C603.32 100.33 604.64 100.66 606 101 C606.33 103.31 606.66 105.62 607 108 C607.99 108.33 608.98 108.66 610 109 C610 109.99 610 110.98 610 112 C610.99 112 611.98 112 613 112 C613.28875 112.969375 613.5775 113.93875 613.875 114.9375 C614.64214682 118.10664203 614.64214682 118.10664203 617 119 C617 120.32 617 121.64 617 123 C618.32 123.33 619.64 123.66 621 124 C621 126.31 621 128.62 621 131 C622.32 131.33 623.64 131.66 625 132 C625.66 135.3 626.32 138.6 627 142 C627.66 142 628.32 142 629 142 C629 144.64 629 147.28 629 150 C630.32 150.33 631.64 150.66 633 151 C633 154.63 633 158.26 633 162 C634.32 162.33 635.64 162.66 637 163 C637.33 168.61 637.66 174.22 638 180 C638.66 180 639.32 180 640 180 C640 194.19 640 208.38 640 223 C639.34 223 638.68 223 638 223 C637.22389009 227.29143127 636.74815404 231.52584343 636.4375 235.875 C636.35371094 237.02742187 636.26992188 238.17984375 636.18359375 239.3671875 C636.12300781 240.23601562 636.06242188 241.10484375 636 242 C635.34 242 634.68 242 634 242 C633.67 246.29 633.34 250.58 633 255 C632.01 254.67 631.02 254.34 630 254 C629.67 257.3 629.34 260.6 629 264 C627.68 264.33 626.36 264.66 625 265 C625 267.31 625 269.62 625 272 C623.68 272.33 622.36 272.66 621 273 C621 275.31 621 277.62 621 280 C619.68 280 618.36 280 617 280 C617 282.31 617 284.62 617 287 C615.68 287.33 614.36 287.66 613 288 C613 289.32 613 290.64 613 292 C612.01 292.495 612.01 292.495 611 293 C610.67 293.99 610.34 294.98 610 296 C609.01 296.33 608.02 296.66 607 297 C606.67 297.99 606.34 298.98 606 300 C605.01 300.33 604.02 300.66 603 301 C602.67 301.66 602.34 302.32 602 303 C601.34 303.144375 600.68 303.28875 600 303.4375 C599.34 303.623125 598.68 303.80875 598 304 C597.67 304.99 597.34 305.98 597 307 C595.02 307.33 593.04 307.66 591 308 C591 308.99 591 309.98 591 311 C588.36 311.33 585.72 311.66 583 312 C583 312.99 583 313.98 583 315 C579.37 315 575.74 315 572 315 C572 315.99 572 316.98 572 318 C568.81175432 319.59412284 565.37103338 319.10174735 561.875 319.0625 C561.12089844 319.05798828 560.36679687 319.05347656 559.58984375 319.04882812 C557.72652873 319.03703499 555.86325445 319.01909942 554 319 C554 319.99 554 320.98 554 322 C553.34402832 322.01981934 552.68805664 322.03963867 552.01220703 322.06005859 C549.04938931 322.15512507 546.08729468 322.26487752 543.125 322.375 C541.57619141 322.42140625 541.57619141 322.42140625 539.99609375 322.46875 C539.00996094 322.50742187 538.02382813 322.54609375 537.0078125 322.5859375 C535.64100342 322.63306885 535.64100342 322.63306885 534.24658203 322.68115234 C531.80068814 322.79882511 531.80068814 322.79882511 530 325 C530 325.33 530 325.66 530 326 C529.01604248 326.02187378 529.01604248 326.02187378 528.01220703 326.04418945 C525.04919969 326.11851414 522.08733883 326.21522369 519.125 326.3125 C518.09246094 326.33505859 517.05992187 326.35761719 515.99609375 326.38085938 C515.00996094 326.41630859 514.02382813 326.45175781 513.0078125 326.48828125 C512.09660645 326.51446533 511.18540039 326.54064941 510.24658203 326.56762695 C509.50520996 326.71031006 508.76383789 326.85299316 508 327 C507.34 327.99 506.68 328.98 506 330 C503.47802734 330.43237305 503.47802734 330.43237305 500.3359375 330.51171875 C498.65371094 330.56489258 498.65371094 330.56489258 496.9375 330.61914062 C495.761875 330.64169922 494.58625 330.66425781 493.375 330.6875 C492.19164062 330.72166016 491.00828125 330.75582031 489.7890625 330.79101562 C486.8594694 330.87370575 483.9301836 330.94278714 481 331 C481 331.99 481 332.98 481 334 C472.09 334.33 463.18 334.66 454 335 C453.67 335.66 453.34 336.32 453 337 C452.04633545 337.01458252 451.0926709 337.02916504 450.11010742 337.04418945 C446.57066415 337.10217792 443.03185676 337.17940958 439.49291992 337.26245117 C437.96144941 337.29569818 436.42985644 337.32373093 434.89819336 337.34643555 C432.69592113 337.37998718 430.49477088 337.4322991 428.29296875 337.48828125 C427.26625313 337.49786613 427.26625313 337.49786613 426.21879578 337.50764465 C422.48977989 337.5123193 422.48977989 337.5123193 419.52734375 339.5 C416.97840814 342.00330249 413.65630698 341.48200095 410.26953125 341.51171875 C409.14390022 341.53864555 409.14390022 341.53864555 407.99552917 341.56611633 C405.6012431 341.62025187 403.20715669 341.65412416 400.8125 341.6875 C399.18812323 341.72067036 397.56377283 341.75515976 395.93945312 341.79101562 C391.95977944 341.8759797 387.9801653 341.94277465 384 342 C384 342.99 384 343.98 384 345 C382.89487061 345.01458252 381.78974121 345.02916504 380.65112305 345.04418945 C376.55264861 345.10214266 372.45472533 345.17937519 368.35668945 345.26245117 C366.58269188 345.29571464 364.8085881 345.32374218 363.03442383 345.34643555 C360.48472824 345.37995602 357.93600708 345.43226865 355.38671875 345.48828125 C354.59287277 345.49467117 353.79902679 345.5010611 352.98112488 345.50764465 C348.6822091 345.5765576 348.6822091 345.5765576 344.97583008 347.53198242 C344.65380615 348.01642822 344.33178223 348.50087402 344 349 C344 348.34 344 347.68 344 347 C343.01 347 342.02 347 341 347 C341 347.66 341 348.32 341 349 C317.24 349.495 317.24 349.495 293 350 C292.67 350.66 292.34 351.32 292 352 C278.14 352 264.28 352 250 352 C250 344 250 344 252 341 C252.36576054 338.68076726 252.36576054 338.68076726 252.4140625 336.11328125 C252.45273437 335.17548828 252.49140625 334.23769531 252.53125 333.27148438 C252.5621875 332.29501953 252.593125 331.31855469 252.625 330.3125 C252.66367187 329.32443359 252.70234375 328.33636719 252.7421875 327.31835938 C252.83645867 324.87909293 252.92206218 322.43983405 253 320 C253.99 320.33 254.98 320.66 256 321 C256.33 306.81 256.66 292.62 257 278 C257.33 278 257.66 278 258 278 C258 270.08 258 262.16 258 254 C257.67 254 257.34 254 257 254 C256.98018066 253.01080566 256.96036133 252.02161133 256.93994141 251.00244141 C256.86396544 247.33827923 256.77523648 243.67451836 256.68261719 240.01074219 C256.64429415 238.42390862 256.60944712 236.83698719 256.578125 235.25 C256.53254569 232.97103434 256.47454162 230.69267532 256.4140625 228.4140625 C256.40251129 227.70255035 256.39096008 226.99103821 256.37905884 226.25796509 C256.36591761 222.17896343 256.36591761 222.17896343 254 219 C253.85492305 216.25514407 253.81347577 213.61519457 253.875 210.875 C253.88402344 210.12089844 253.89304687 209.36679687 253.90234375 208.58984375 C253.9259313 206.72642746 253.96180281 204.86317407 254 203 C252.68 203 251.36 203 250 203 C249.67 199.37 249.34 195.74 249 192 C248.01 191.67 247.02 191.34 246 191 C245.67 187.37 245.34 183.74 245 180 C244.01 180 243.02 180 242 180 C242 177.69 242 175.38 242 173 C241.01 172.67 240.02 172.34 239 172 C238.67 171.01 238.34 170.02 238 169 C237.01 168.67 236.02 168.34 235 168 C234.29618843 166.01276732 233.6288189 164.01222047 233 162 C232.34 161.67 231.68 161.34 231 161 C231 159.68 231 158.36 231 157 C229.68 157 228.36 157 227 157 C227 155.68 227 154.36 227 153 C226.01 153 225.02 153 224 153 C223.67 152.01 223.34 151.02 223 150 C222.01 149.67 221.02 149.34 220 149 C220 148.01 220 147.02 220 146 C218.68 145.67 217.36 145.34 216 145 C216 144.01 216 143.02 216 142 C214.35 142 212.7 142 211 142 C211 140.68 211 139.36 211 138 C209.02 138 207.04 138 205 138 C204.67 137.01 204.34 136.02 204 135 C202.02 134.67 200.04 134.34 198 134 C197.67 132.68 197.34 131.36 197 130 C194.03 130 191.06 130 188 130 C188 129.01 188 128.02 188 127 C181.565 126.505 181.565 126.505 175 126 C174.67 125.01 174.34 124.02 174 123 C149.91 123 125.82 123 101 123 C101 123.99 101 124.98 101 126 C93.08 126.495 93.08 126.495 85 127 C85.33 127.99 85.66 128.98 86 130 C83.03 130.33 80.06 130.66 77 131 C77 131.99 77 132.98 77 134 C74.36 134 71.72 134 69 134 C68.896875 134.639375 68.79375 135.27875 68.6875 135.9375 C68.460625 136.618125 68.23375 137.29875 68 138 C67.01 138.33 66.02 138.66 65 139 C64.67 139.66 64.34 140.32 64 141 C62.02 141 60.04 141 58 141 C58 142.32 58 143.64 58 145 C56.68 145 55.36 145 54 145 C54 146.32 54 147.64 54 149 C52.68 149 51.36 149 50 149 C50 150.32 50 151.64 50 153 C48.68 153 47.36 153 46 153 C46 154.32 46 155.64 46 157 C45.01 157.33 44.02 157.66 43 158 C43 158.99 43 159.98 43 161 C41.515 161.99 41.515 161.99 40 163 C39.27034634 165.56282742 39.27034634 165.56282742 39 168 C37.68 168 36.36 168 35 168 C35 170.31 35 172.62 35 175 C33.68 175.33 32.36 175.66 31 176 C31 178.31 31 180.62 31 183 C30.01 183.33 29.02 183.66 28 184 C27.67 186.31 27.34 188.62 27 191 C26.34 191 25.68 191 25 191 C24.67 195.29 24.34 199.58 24 204 C23.01 203.67 22.02 203.34 21 203 C20.67 209.6 20.34 216.2 20 223 C19.34 223 18.68 223 18 223 C16.34124203 226.31751593 16.87110697 230.02597054 16.88647461 233.67236328 C16.88625557 235.0187941 16.88625557 235.0187941 16.8860321 236.39242554 C16.88673047 239.36841218 16.89451933 242.34433675 16.90234375 245.3203125 C16.9042082 247.38011643 16.90563198 249.43992081 16.90663147 251.49972534 C16.91045452 256.92817402 16.92028301 262.35659605 16.93133545 267.78503418 C16.94155412 273.32152954 16.94613007 278.85802919 16.95117188 284.39453125 C16.96190545 295.26303256 16.97897935 306.13151406 17 317 C17.66 317 18.32 317 19 317 C19.96088383 319.88265149 20.11670941 321.67662271 20.09765625 324.66796875 C20.09443359 325.56064453 20.09121094 326.45332031 20.08789062 327.37304688 C20.07951172 328.30181641 20.07113281 329.23058594 20.0625 330.1875 C20.05798828 331.12787109 20.05347656 332.06824219 20.04882812 333.03710938 C20.03704626 335.35813712 20.02059558 337.67903644 20 340 C20.99 340.33 21.98 340.66 23 341 C23 344.63 23 348.26 23 352 C5.18 352 -12.64 352 -31 352 C-31.33 351.01 -31.66 350.02 -32 349 C-32.59690643 348.99413376 -33.19381287 348.98826752 -33.80880737 348.98222351 C-40.00550498 348.91843083 -46.20167639 348.83404888 -52.39794922 348.73754883 C-54.7123319 348.7042355 -57.02679708 348.67622378 -59.34130859 348.65356445 C-62.66279356 348.62013623 -65.98351802 348.5678265 -69.3046875 348.51171875 C-70.34430634 348.50532883 -71.38392517 348.4989389 -72.45504761 348.49235535 C-73.89631516 348.46266411 -73.89631516 348.46266411 -75.36669922 348.43237305 C-76.21497284 348.42126999 -77.06324646 348.41016693 -77.93722534 348.39872742 C-78.61794098 348.26714737 -79.29865662 348.13556732 -80 348 C-80.66 347.01 -81.32 346.02 -82 345 C-83.84725228 344.5267707 -83.84725228 344.5267707 -85.99072266 344.56762695 C-87.22177231 344.53793571 -87.22177231 344.53793571 -88.47769165 344.50764465 C-89.36419403 344.50125473 -90.25069641 344.49486481 -91.1640625 344.48828125 C-92.07127045 344.47033005 -92.97847839 344.45237885 -93.91317749 344.43388367 C-96.81707072 344.37960573 -99.720798 344.34582927 -102.625 344.3125 C-104.59116902 344.27934233 -106.55731609 344.24485413 -108.5234375 344.20898438 C-113.34883888 344.12386935 -118.17418955 344.05714194 -123 344 C-123 343.34 -123 342.68 -123 342 C-125.94412027 340.52793987 -128.96285915 340.76192808 -132.1953125 340.68359375 C-132.90275604 340.66281265 -133.61019958 340.64203156 -134.33908081 340.62062073 C-136.60095425 340.55518922 -138.86294462 340.49627026 -141.125 340.4375 C-142.65756422 340.39430867 -144.19011657 340.35069418 -145.72265625 340.30664062 C-149.48165073 340.19951445 -153.24076292 340.0982291 -157 340 C-157 339.01 -157 338.02 -157 337 C-167.23 336.67 -177.46 336.34 -188 336 C-188 335.34 -188 334.68 -188 334 C-190.57211322 332.71394339 -192.56906966 332.78956059 -195.4453125 332.68359375 C-196.52167969 332.64169922 -197.59804687 332.59980469 -198.70703125 332.55664062 C-200.39892578 332.49766602 -200.39892578 332.49766602 -202.125 332.4375 C-203.26066406 332.39431641 -204.39632812 332.35113281 -205.56640625 332.30664062 C-208.37747768 332.2003396 -211.18863945 332.09830595 -214 332 C-214.33 331.34 -214.66 330.68 -215 330 C-217.21295647 329.56375308 -217.21295647 329.56375308 -219.875 329.4375 C-220.85984375 329.36273437 -221.8446875 329.28796875 -222.859375 329.2109375 C-223.89578125 329.14132812 -224.9321875 329.07171875 -226 329 C-228.0422672 328.8628328 -230.08400458 328.71744468 -232.125 328.5625 C-233.03507813 328.50191406 -233.94515625 328.44132812 -234.8828125 328.37890625 C-235.58148438 328.25386719 -236.28015625 328.12882812 -237 328 C-237.33 327.34 -237.66 326.68 -238 326 C-245.26 325.67 -252.52 325.34 -260 325 C-260.495 323.515 -260.495 323.515 -261 322 C-267.6 321.67 -274.2 321.34 -281 321 C-280.34 320.67 -279.68 320.34 -279 320 C-279 319.34 -279 318.68 -279 318 C-284.28 317.67 -289.56 317.34 -295 317 C-295.495 315.515 -295.495 315.515 -296 314 C-299.3 313.67 -302.6 313.34 -306 313 C-306 312.01 -306 311.02 -306 310 C-309.3 309.67 -312.6 309.34 -316 309 C-316.495 307.515 -316.495 307.515 -317 306 C-317.94875 305.896875 -318.8975 305.79375 -319.875 305.6875 C-323 305 -323 305 -325 302 C-325.99 301.67 -326.98 301.34 -328 301 C-328 300.01 -328 299.02 -328 298 C-329.65 298 -331.3 298 -333 298 C-333.495 296.515 -333.495 296.515 -334 295 C-334.66 294.67 -335.32 294.34 -336 294 C-336 292.68 -336 291.36 -336 290 C-337.32 290 -338.64 290 -340 290 C-340 288.68 -340 287.36 -340 286 C-341.32 285.67 -342.64 285.34 -344 285 C-344 282.69 -344 280.38 -344 278 C-345.32 278 -346.64 278 -348 278 C-348 275.69 -348 273.38 -348 271 C-349.32 270.67 -350.64 270.34 -352 270 C-352 267.69 -352 265.38 -352 263 C-353.32 262.67 -354.64 262.34 -356 262 C-356.495 257.05 -356.495 257.05 -357 252 C-357.66 252 -358.32 252 -359 252 C-359 248.04 -359 244.08 -359 240 C-360.32 240 -361.64 240 -363 240 C-363.03738281 238.95199219 -363.07476562 237.90398437 -363.11328125 236.82421875 C-363.17894515 235.44527695 -363.24539235 234.06637229 -363.3125 232.6875 C-363.33505859 231.99720703 -363.35761719 231.30691406 -363.38085938 230.59570312 C-363.44843187 226.66597692 -363.44843187 226.66597692 -365.51069641 223.52738953 C-367.40868805 221.58086058 -367.36592287 220.66585005 -367.34057617 217.98754883 C-367.34034958 217.18694534 -367.34012299 216.38634186 -367.33988953 215.56147766 C-367.32440567 214.70201035 -367.30892181 213.84254303 -367.29296875 212.95703125 C-367.28872391 212.0734343 -367.28447906 211.18983734 -367.28010559 210.27946472 C-367.26331043 207.45683339 -367.22565697 204.63491559 -367.1875 201.8125 C-367.17245423 199.89909885 -367.15876564 197.98568651 -367.14648438 196.07226562 C-367.11340419 191.38123541 -367.0616163 186.69073869 -367 182 C-366.34 182 -365.68 182 -365 182 C-363.56654634 177.69963902 -363.68243439 173.30558038 -363.5703125 168.8046875 C-363.32930699 163.36197975 -363.32930699 163.36197975 -361.50390625 161.35546875 C-361.00761719 160.90816406 -360.51132812 160.46085938 -360 160 C-359.42224116 157.26769695 -359.42224116 157.26769695 -359.3125 154.3125 C-359.24675781 153.31863281 -359.18101562 152.32476563 -359.11328125 151.30078125 C-359.07589844 150.54152344 -359.03851563 149.78226563 -359 149 C-357.68 148.67 -356.36 148.34 -355 148 C-355 145.36 -355 142.72 -355 140 C-354.34 139.67 -353.68 139.34 -353 139 C-352.67 138.01 -352.34 137.02 -352 136 C-351.67 135.01 -351.34 134.02 -351 133 C-350.34 132.67 -349.68 132.34 -349 132 C-348.53476937 130.10466658 -348.53476937 130.10466658 -348.375 127.9375 C-348.25125 126.638125 -348.1275 125.33875 -348 124 C-347.01 124 -346.02 124 -345 124 C-344.67 121.69 -344.34 119.38 -344 117 C-343.01 117 -342.02 117 -341 117 C-340.67 114.69 -340.34 112.38 -340 110 C-338.68 110 -337.36 110 -336 110 C-336 108.68 -336 107.36 -336 106 C-335.01 106 -334.02 106 -333 106 C-332.67 103.69 -332.34 101.38 -332 99 C-330.02 98.505 -330.02 98.505 -328 98 C-328 97.01 -328 96.02 -328 95 C-327.01 94.67 -326.02 94.34 -325 94 C-324.505 92.515 -324.505 92.515 -324 91 C-323.01 90.67 -322.02 90.34 -321 90 C-321 89.01 -321 88.02 -321 87 C-320.01 87 -319.02 87 -318 87 C-317.505 85.02 -317.505 85.02 -317 83 C-315.68 83 -314.36 83 -313 83 C-313 81.68 -313 80.36 -313 79 C-311.68 79 -310.36 79 -309 79 C-309 78.01 -309 77.02 -309 76 C-307.68 76 -306.36 76 -305 76 C-305 74.68 -305 73.36 -305 72 C-304.360625 71.896875 -303.72125 71.79375 -303.0625 71.6875 C-302.381875 71.460625 -301.70125 71.23375 -301 71 C-300.505 69.515 -300.505 69.515 -300 68 C-298.35 67.67 -296.7 67.34 -295 67 C-294.505 65.515 -294.505 65.515 -294 64 C-292.35 64 -290.7 64 -289 64 C-289 62.68 -289 61.36 -289 60 C-287.824375 59.8453125 -287.824375 59.8453125 -286.625 59.6875 C-283.66954819 59.22404978 -283.66954819 59.22404978 -282 56 C-279.375 55.8125 -279.375 55.8125 -277 56 C-277 55.01 -277 54.02 -277 53 C-274.36 52.67 -271.72 52.34 -269 52 C-269 51.01 -269 50.02 -269 49 C-266.69 48.34 -264.38 47.68 -262 47 C-262 46.34 -262 45.68 -262 45 C-257.545 44.505 -257.545 44.505 -253 44 C-252.67 43.01 -252.34 42.02 -252 41 C-247.545 40.505 -247.545 40.505 -243 40 C-243 39.01 -243 38.02 -243 37 C-239.04 37 -235.08 37 -231 37 C-231 36.01 -231 35.02 -231 34 C-227.7 33.67 -224.4 33.34 -221 33 C-220.67 32.01 -220.34 31.02 -220 30 C-215.38 29.67 -210.76 29.34 -206 29 C-206 28.01 -206 27.02 -206 26 C-201.38 25.67 -196.76 25.34 -192 25 C-191.67 24.01 -191.34 23.02 -191 22 C-182.585 21.505 -182.585 21.505 -174 21 C-174 20.01 -174 19.02 -174 18 C-163.605 17.505 -163.605 17.505 -153 17 C-152.67 16.34 -152.34 15.68 -152 15 C-151.44014404 14.98018066 -150.88028809 14.96036133 -150.3034668 14.93994141 C-147.76434146 14.84462217 -145.22603112 14.73497247 -142.6875 14.625 C-141.80642578 14.5940625 -140.92535156 14.563125 -140.01757812 14.53125 C-139.17001953 14.49257813 -138.32246094 14.45390625 -137.44921875 14.4140625 C-136.66893311 14.3826416 -135.88864746 14.3512207 -135.0847168 14.31884766 C-132.69844232 14.10412111 -132.69844232 14.10412111 -130 12 C-130 11.67 -130 11.34 -130 11 C-112.675 10.505 -112.675 10.505 -95 10 C-95 9.01 -95 8.02 -95 7 C-81.47 6.67 -67.94 6.34 -54 6 C-53.67 5.34 -53.34 4.68 -53 4 C-49.67014587 3.09468893 -46.4644392 2.85818225 -43.02612305 2.79467773 C-42.06550461 2.77473251 -41.10488617 2.75478729 -40.11515808 2.73423767 C-39.0910231 2.71752518 -38.06688812 2.70081268 -37.01171875 2.68359375 C-35.42421562 2.6524221 -35.42421562 2.6524221 -33.80464172 2.62062073 C-30.43232559 2.55536897 -27.05993326 2.49635363 -23.6875 2.4375 C-21.39777866 2.3942916 -19.10806495 2.35067657 -16.81835938 2.30664062 C-11.21231955 2.19971259 -5.60620434 2.09790137 0 2 C0 1.34 0 0.68 0 0 Z M261 1 C261 1.33 261 1.66 261 2 C262.65 2 264.3 2 266 2 C266 1.67 266 1.34 266 1 C264.35 1 262.7 1 261 1 Z M14 260 C15 263 15 263 15 263 Z M14 269 C15 271 15 271 15 271 Z " fill="#DC5E00" transform="translate(367,471)"/>
<path d="M0 0 C52.14 0 104.28 0 158 0 C158 0.66 158 1.32 158 2 C158.66 1.34 159.32 0.68 160 0 C163.625 -0.125 163.625 -0.125 167 0 C166.67 0.99 166.34 1.98 166 3 C167.06115776 3.00879936 167.06115776 3.00879936 168.14375305 3.01777649 C174.80944932 3.07567101 181.47482418 3.14772853 188.14019489 3.23571491 C191.56699079 3.28045028 194.99366695 3.31969888 198.4206543 3.34643555 C202.3601231 3.37741047 206.29908651 3.43220098 210.23828125 3.48828125 C211.46960281 3.49467117 212.70092438 3.5010611 213.96955872 3.50764465 C215.68099312 3.53733589 215.68099312 3.53733589 217.42700195 3.56762695 C218.93590752 3.58428154 218.93590752 3.58428154 220.47529602 3.60127258 C223.41902621 4.06617696 224.05770357 4.85234063 226 7 C228.50728032 7.3307063 230.78137387 7.4882718 233.29296875 7.51171875 C233.99899734 7.52966995 234.70502594 7.54762115 235.43244934 7.56611633 C237.68407241 7.62023178 239.93548343 7.65411722 242.1875 7.6875 C243.71552431 7.72067219 245.24352063 7.75516177 246.77148438 7.79101562 C250.51416989 7.87595825 254.25679241 7.94276248 258 8 C258 8.99 258 9.98 258 11 C270.87 11.495 270.87 11.495 284 12 C284.33 12.66 284.66 13.32 285 14 C287.7902667 14.9300889 289.76529542 15.18698769 292.66796875 15.31640625 C294.00698242 15.37924805 294.00698242 15.37924805 295.37304688 15.44335938 C296.76620117 15.50233398 296.76620117 15.50233398 298.1875 15.5625 C299.12787109 15.60568359 300.06824219 15.64886719 301.03710938 15.69335938 C303.35792854 15.79938665 305.67885325 15.90145029 308 16 C308 16.99 308 17.98 308 19 C309.19238281 18.96519531 310.38476562 18.93039062 311.61328125 18.89453125 C313.17967342 18.86639247 314.74608081 18.8390924 316.3125 18.8125 C317.49102539 18.77479492 317.49102539 18.77479492 318.69335938 18.73632812 C319.45068359 18.72666016 320.20800781 18.71699219 320.98828125 18.70703125 C322.03302612 18.68346558 322.03302612 18.68346558 323.09887695 18.65942383 C325.55776492 19.09992064 326.28871362 20.24105179 328 22 C330.62939205 22.37644848 333.05072472 22.60133087 335.6875 22.6875 C336.7403418 22.73874023 336.7403418 22.73874023 337.81445312 22.79101562 C339.54241387 22.87329947 341.27118072 22.9383324 343 23 C343 23.99 343 24.98 343 26 C347.95 26.33 352.9 26.66 358 27 C357.67 27.99 357.34 28.98 357 30 C363.93 30.495 363.93 30.495 371 31 C371.33 31.99 371.66 32.98 372 34 C375.3 34.33 378.6 34.66 382 35 C382.33 35.99 382.66 36.98 383 38 C385.97 38.33 388.94 38.66 392 39 C392 39.99 392 40.98 392 42 C395.3 42.33 398.6 42.66 402 43 C402 43.99 402 44.98 402 46 C403.98 46 405.96 46 408 46 C408.33 47.32 408.66 48.64 409 50 C410.32 50 411.64 50 413 50 C413.33 50.99 413.66 51.98 414 53 C416.31 53.33 418.62 53.66 421 54 C421 54.99 421 55.98 421 57 C421.9590625 57.1546875 421.9590625 57.1546875 422.9375 57.3125 C423.618125 57.539375 424.29875 57.76625 425 58 C425.33 58.99 425.66 59.98 426 61 C426.8971875 61.2165625 426.8971875 61.2165625 427.8125 61.4375 C430.79859655 62.2053534 432.06462371 63.64990022 434 66 C434 66.99 434 67.98 434 69 C435.32 69.33 436.64 69.66 438 70 C438 70.99 438 71.98 438 73 C439.32 73.33 440.64 73.66 442 74 C442 74.66 442 75.32 442 76 C443.32 76.66 444.64 77.32 446 78 C446 78.66 446 79.32 446 80 C446.99 80.33 447.98 80.66 449 81 C449.33 81.99 449.66 82.98 450 84 C450.99 84.33 451.98 84.66 453 85 C453 85.99 453 86.98 453 88 C453.99 88 454.98 88 456 88 C456 89.32 456 90.64 456 92 C457.32 92.33 458.64 92.66 460 93 C460 93.99 460 94.98 460 96 C460.99 96 461.98 96 463 96 C463.99 98.31 464.98 100.62 466 103 C466.66 102.67 467.32 102.34 468 102 C468 103.98 468 105.96 468 108 C469.32 108.33 470.64 108.66 472 109 C472 110.98 472 112.96 472 115 C472.99 115.33 473.98 115.66 475 116 C476.17755913 118.94389782 476.03348696 119.89953913 475 123 C476.32 123 477.64 123 479 123 C479 125.64 479 128.28 479 131 C480.32 131 481.64 131 483 131 C483 134.63 483 138.26 483 142 C484.32 142.33 485.64 142.66 487 143 C487 146.63 487 150.26 487 154 C488.32 154.33 489.64 154.66 491 155 C491.03738281 155.94101562 491.07476563 156.88203125 491.11328125 157.8515625 C491.17902344 159.09679687 491.24476563 160.34203125 491.3125 161.625 C491.37050781 162.85476563 491.42851563 164.08453125 491.48828125 165.3515625 C491.75867707 168.96295613 491.75867707 168.96295613 493.50927734 171.57568359 C495.55143684 176.26669721 495.41201407 180.37674697 495.36328125 185.4375 C495.36377975 186.43579834 495.36427826 187.43409668 495.36479187 188.46264648 C495.36245787 190.56724037 495.35276923 192.67183738 495.33618164 194.77636719 C495.31257943 197.98918748 495.31562743 201.20117743 495.32226562 204.4140625 C495.31668854 206.46354659 495.30957847 208.5130272 495.30078125 210.5625 C495.30169266 211.51890381 495.30260406 212.47530762 495.30354309 213.46069336 C495.25162079 218.369312 494.92426587 222.39593415 493 227 C489.37 227 485.74 227 482 227 C481.67 225.68 481.34 224.36 481 223 C475.72 223 470.44 223 465 223 C465 222.01 465 221.02 465 220 C460.05 219.67 455.1 219.34 450 219 C450 217.68 450 216.36 450 215 C444.39 215 438.78 215 433 215 C433 214.01 433 213.02 433 212 C424.585 211.505 424.585 211.505 416 211 C415.67 210.01 415.34 209.02 415 208 C409.06 207.67 403.12 207.34 397 207 C397 206.01 397 205.02 397 204 C389.74 203.67 382.48 203.34 375 203 C375 202.34 375 201.68 375 201 C373.9627478 200.92483154 373.9627478 200.92483154 372.90454102 200.84814453 C369.78970714 200.61691118 366.67618856 200.37115591 363.5625 200.125 C362.47388672 200.04636719 361.38527344 199.96773437 360.26367188 199.88671875 C359.22919922 199.80292969 358.19472656 199.71914063 357.12890625 199.6328125 C356.17056885 199.55949707 355.21223145 199.48618164 354.22485352 199.41064453 C353.49065186 199.27513184 352.7564502 199.13961914 352 199 C351.67 198.34 351.34 197.68 351 197 C340.605 196.505 340.605 196.505 330 196 C330 195.01 330 194.02 330 193 C319.11 192.67 308.22 192.34 297 192 C297.66 191.67 298.32 191.34 299 191 C298.67 190.34 298.34 189.68 298 189 C288.1 188.67 278.2 188.34 268 188 C267.67 187.01 267.34 186.02 267 185 C253.14 184.67 239.28 184.34 225 184 C225.33 183.01 225.66 182.02 226 181 C202.24 180.67 178.48 180.34 154 180 C153.67 179.01 153.34 178.02 153 177 C110.76 177 68.52 177 25 177 C25 177.99 25 178.98 25 180 C2.23 180.33 -20.54 180.66 -44 181 C-44.33 181.66 -44.66 182.32 -45 183 C-61.5 183.33 -78 183.66 -95 184 C-95 184.99 -95 185.98 -95 187 C-111.335 187.495 -111.335 187.495 -128 188 C-128.33 188.99 -128.66 189.98 -129 191 C-138.9 191.33 -148.8 191.66 -159 192 C-159 192.99 -159 193.98 -159 195 C-174.345 195.495 -174.345 195.495 -190 196 C-190.33 196.66 -190.66 197.32 -191 198 C-191.88522339 198.02187378 -191.88522339 198.02187378 -192.78833008 198.04418945 C-195.46371229 198.11868844 -198.13784892 198.21533995 -200.8125 198.3125 C-201.74126953 198.33505859 -202.67003906 198.35761719 -203.62695312 198.38085938 C-204.51962891 198.41630859 -205.41230469 198.45175781 -206.33203125 198.48828125 C-207.15421143 198.51446533 -207.9763916 198.54064941 -208.82348633 198.56762695 C-211.08634286 198.80593014 -211.08634286 198.80593014 -212.49072266 200.5065918 C-214.57344654 202.56741709 -215.92819632 202.38219753 -218.81640625 202.40625 C-219.74517578 202.42816406 -220.67394531 202.45007813 -221.63085938 202.47265625 C-223.58919237 202.49092185 -225.5475257 202.50915087 -227.50585938 202.52734375 C-228.43333984 202.54925781 -229.36082031 202.57117188 -230.31640625 202.59375 C-231.16662354 202.60083984 -232.01684082 202.60792969 -232.89282227 202.61523438 C-233.58819092 202.74220703 -234.28355957 202.86917969 -235 203 C-235.66 203.99 -236.32 204.98 -237 206 C-239.06298828 206.43237305 -239.06298828 206.43237305 -241.5703125 206.51171875 C-242.46621094 206.54716797 -243.36210937 206.58261719 -244.28515625 206.61914062 C-245.22230469 206.64169922 -246.15945312 206.66425781 -247.125 206.6875 C-248.06988281 206.72166016 -249.01476562 206.75582031 -249.98828125 206.79101562 C-252.32540253 206.87364112 -254.66214191 206.94273988 -257 207 C-257.33 207.99 -257.66 208.98 -258 210 C-264.27 210 -270.54 210 -277 210 C-277.33 211.32 -277.66 212.64 -278 214 C-284.6 214 -291.2 214 -298 214 C-298 214.99 -298 215.98 -298 217 C-299.37285156 217.07347656 -299.37285156 217.07347656 -300.7734375 217.1484375 C-302.55621094 217.26058594 -302.55621094 217.26058594 -304.375 217.375 C-306.15003906 217.47941406 -306.15003906 217.47941406 -307.9609375 217.5859375 C-311.10562319 217.70217346 -311.10562319 217.70217346 -313 220 C-313 220.33 -313 220.66 -313 221 C-318.61 221.33 -324.22 221.66 -330 222 C-330.33 222.99 -330.66 223.98 -331 225 C-335.29 225 -339.58 225 -344 225 C-344.07405325 217.79177104 -344.12855664 210.58376259 -344.16479492 203.37524414 C-344.17989881 200.92207992 -344.20038321 198.46894276 -344.22631836 196.01586914 C-344.26263057 192.49358445 -344.27971036 188.97165619 -344.29296875 185.44921875 C-344.30845261 184.34913986 -344.32393646 183.24906097 -344.33988953 182.11564636 C-344.34011612 181.09481461 -344.34034271 180.07398285 -344.34057617 179.0222168 C-344.34723801 178.12286911 -344.35389984 177.22352142 -344.36076355 176.29692078 C-343.92365736 173.51393927 -343.00959936 172.8749833 -341 171 C-340.62355152 168.37060795 -340.39866913 165.94927528 -340.3125 163.3125 C-340.27833984 162.61060547 -340.24417969 161.90871094 -340.20898438 161.18554688 C-340.12670053 159.45758613 -340.0616676 157.72881928 -340 156 C-339.34 156 -338.68 156 -338 156 C-337.93941406 155.08476562 -337.87882812 154.16953125 -337.81640625 153.2265625 C-337.73261719 152.03804687 -337.64882813 150.84953125 -337.5625 149.625 C-337.48128906 148.44164062 -337.40007812 147.25828125 -337.31640625 146.0390625 C-337 143 -337 143 -336 141 C-335.01 141 -334.02 141 -333 141 C-333 138.03 -333 135.06 -333 132 C-332.01 132.33 -331.02 132.66 -330 133 C-329.67 129.37 -329.34 125.74 -329 122 C-327.68 122 -326.36 122 -325 122 C-325 119.69 -325 117.38 -325 115 C-323.02 114.505 -323.02 114.505 -321 114 C-321 112.68 -321 111.36 -321 110 C-320.01 110 -319.02 110 -318 110 C-317.67 107.69 -317.34 105.38 -317 103 C-315.02 102.505 -315.02 102.505 -313 102 C-313 99.69 -313 97.38 -313 95 C-311.515 94.505 -311.515 94.505 -310 94 C-309.505 92.515 -309.505 92.515 -309 91 C-308.01 90.67 -307.02 90.34 -306 90 C-305.505 88.515 -305.505 88.515 -305 87 C-304.01 86.67 -303.02 86.34 -302 86 C-302 85.01 -302 84.02 -302 83 C-301.01 83 -300.02 83 -299 83 C-298.505 81.02 -298.505 81.02 -298 79 C-297.01 79 -296.02 79 -295 79 C-295 78.01 -295 77.02 -295 76 C-293.02 75.505 -293.02 75.505 -291 75 C-291 74.01 -291 73.02 -291 72 C-290.01 71.67 -289.02 71.34 -288 71 C-287.505 69.515 -287.505 69.515 -287 68 C-286.01 67.67 -285.02 67.34 -284 67 C-283.505 65.515 -283.505 65.515 -283 64 C-281.35 64 -279.7 64 -278 64 C-278 62.68 -278 61.36 -278 60 C-276.68 60 -275.36 60 -274 60 C-274 59.01 -274 58.02 -274 57 C-272.02 56.67 -270.04 56.34 -268 56 C-268 55.01 -268 54.02 -268 53 C-266.35 53 -264.7 53 -263 53 C-263 51.68 -263 50.36 -263 49 C-261.02 48.67 -259.04 48.34 -257 48 C-257 47.01 -257 46.02 -257 45 C-255.02 44.67 -253.04 44.34 -251 44 C-250.67 43.01 -250.34 42.02 -250 41 C-246.37 41 -242.74 41 -239 41 C-239 40.01 -239 39.02 -239 38 C-236.59454362 36.79727181 -235.05003047 36.89928528 -232.375 36.9375 C-231.14910156 36.95103516 -231.14910156 36.95103516 -229.8984375 36.96484375 C-229.27195312 36.97644531 -228.64546875 36.98804688 -228 37 C-228 36.01 -228 35.02 -228 34 C-223.38 33.67 -218.76 33.34 -214 33 C-214 32.01 -214 31.02 -214 30 C-209.71 29.67 -205.42 29.34 -201 29 C-200.67 28.01 -200.34 27.02 -200 26 C-195.38 25.67 -190.76 25.34 -186 25 C-185.67 24.01 -185.34 23.02 -185 22 C-183.86820313 21.96261719 -182.73640625 21.92523438 -181.5703125 21.88671875 C-180.08850795 21.82106918 -178.60673861 21.75462149 -177.125 21.6875 C-176.37863281 21.66494141 -175.63226563 21.64238281 -174.86328125 21.61914062 C-172.900396 21.52188055 -170.94671678 21.26957706 -169 21 C-168.01 19.515 -168.01 19.515 -167 18 C-164.06402461 17.61615491 -161.31972627 17.396157 -158.375 17.3125 C-157.57320312 17.27833984 -156.77140625 17.24417969 -155.9453125 17.20898438 C-153.96403682 17.12643122 -151.98203963 17.06154084 -150 17 C-149.67 16.34 -149.34 15.68 -149 15 C-137.615 14.505 -137.615 14.505 -126 14 C-126 13.01 -126 12.02 -126 11 C-117.09 10.67 -108.18 10.34 -99 10 C-99.33 9.01 -99.66 8.02 -100 7 C-88.78 6.67 -77.56 6.34 -66 6 C-66 5.01 -66 4.02 -66 3 C-44.55 2.67 -23.1 2.34 -1 2 C-0.67 1.34 -0.34 0.68 0 0 Z M157 178 C161 179 161 179 161 179 Z " fill="#DC5E00" transform="translate(429,268)"/>
<path d="M0 0 C5.28 0 10.56 0 16 0 C16.33 0.99 16.66 1.98 17 3 C22.94 3.33 28.88 3.66 35 4 C35 4.99 35 5.98 35 7 C35.55985596 7.01458252 36.11971191 7.02916504 36.6965332 7.04418945 C39.23588137 7.11871352 41.77392078 7.21535581 44.3125 7.3125 C45.63411133 7.34633789 45.63411133 7.34633789 46.98242188 7.38085938 C48.25375977 7.4340332 48.25375977 7.4340332 49.55078125 7.48828125 C50.72120972 7.52755737 50.72120972 7.52755737 51.9152832 7.56762695 C54.4836932 8.10031862 55.18843199 9.17176843 57 11 C59.01792826 11.4994461 59.01792826 11.4994461 61.23046875 11.51171875 C62.43413086 11.56489258 62.43413086 11.56489258 63.66210938 11.61914062 C64.49548828 11.64169922 65.32886719 11.66425781 66.1875 11.6875 C67.03248047 11.72166016 67.87746094 11.75582031 68.74804688 11.79101562 C70.83156649 11.87341471 72.91576216 11.93838645 75 12 C75 12.99 75 13.98 75 15 C82.59 15.33 90.18 15.66 98 16 C98 16.99 98 17.98 98 19 C106.25 19 114.5 19 123 19 C123.495 20.485 123.495 20.485 124 22 C134.23 22.33 144.46 22.66 155 23 C155 23.99 155 24.98 155 26 C164.57 26.33 174.14 26.66 184 27 C184 27.99 184 28.98 184 30 C203.8 30.495 203.8 30.495 224 31 C223.67 31.66 223.34 32.32 223 33 C226.38052274 34.69026137 230.22260142 34.24444959 233.9453125 34.31640625 C234.8303244 34.33718735 235.7153363 34.35796844 236.62716675 34.37937927 C239.45969741 34.44486598 242.29232225 34.50375562 245.125 34.5625 C247.04297857 34.60568606 248.96094754 34.64930037 250.87890625 34.69335938 C255.58584051 34.80054647 260.29286967 34.9018164 265 35 C265 35.66 265 36.32 265 37 C267.5768641 38.28843205 269.48218759 38.16003433 272.36767578 38.20532227 C274.04919235 38.2352401 274.04919235 38.2352401 275.76467896 38.26576233 C277.58659256 38.29083107 277.58659256 38.29083107 279.4453125 38.31640625 C281.30553543 38.3475779 281.30553543 38.3475779 283.20333862 38.37937927 C286.50111823 38.43377705 289.7989272 38.48400095 293.09680176 38.53222656 C296.46172653 38.58245234 299.8265605 38.63813277 303.19140625 38.69335938 C309.79419854 38.80061557 316.39705872 38.90237189 323 39 C323.33 39.99 323.66 40.98 324 42 C404.85 42 485.7 42 569 42 C569.33 41.34 569.66 40.68 570 40 C582.07017679 37.68432024 595.31994411 38.97710301 607.54345703 39.17138672 C610.3545287 39.21354095 613.1652627 39.23707922 615.9765625 39.2578125 C616.83899567 39.27643341 617.70142883 39.29505432 618.58999634 39.3142395 C619.78802383 39.31942093 619.78802383 39.31942093 621.01025391 39.32470703 C621.7105069 39.33438507 622.41075989 39.34406311 623.13223267 39.35403442 C625.12063369 39.1613202 625.12063369 39.1613202 626.4641571 37.50672913 C628.52007181 35.48978678 629.71861137 35.60659436 632.56323242 35.56762695 C633.48396042 35.54783279 634.40468842 35.52803864 635.35331726 35.50764465 C636.34402725 35.50125473 637.33473724 35.49486481 638.35546875 35.48828125 C639.37224197 35.47033005 640.3890152 35.45237885 641.43659973 35.43388367 C644.68685752 35.3796646 647.9369675 35.34584741 651.1875 35.3125 C653.38999458 35.27933721 655.59246963 35.24484853 657.79492188 35.20898438 C663.19648204 35.12393168 668.59806106 35.05563102 674 35 C674 34.01 674 33.02 674 32 C674.98919434 31.98541748 675.97838867 31.97083496 676.99755859 31.95581055 C680.66182919 31.8979103 684.32547985 31.82067848 687.98925781 31.73754883 C689.57606965 31.7042602 691.16300103 31.67624053 692.75 31.65356445 C695.02916484 31.62008922 697.30723041 31.5677814 699.5859375 31.51171875 C700.29744965 31.50532883 701.00896179 31.4989389 701.74203491 31.49235535 C703.9600456 31.45990352 703.9600456 31.45990352 707 31 C707.66 30.01 708.32 29.02 709 28 C711.54579377 27.66197325 713.86149086 27.5112053 716.4140625 27.48828125 C717.14370209 27.47033005 717.87334167 27.45237885 718.62509155 27.43388367 C720.95833535 27.37964868 723.29137314 27.34584438 725.625 27.3125 C727.20575792 27.27933838 728.78648861 27.2448498 730.3671875 27.20898438 C734.24464326 27.12391533 738.12203655 27.05716822 742 27 C742.33 26.34 742.66 25.68 743 25 C749.54040344 23.51862657 756.55796968 23.93555127 763.21484375 24.0625 C766.08643089 24.13500343 766.08643089 24.13500343 769 23 C769.33 22.34 769.66 21.68 770 21 C771.0669812 20.97812622 771.0669812 20.97812622 772.15551758 20.95581055 C775.37506332 20.88138994 778.59356518 20.78471 781.8125 20.6875 C782.93205078 20.66494141 784.05160156 20.64238281 785.20507812 20.61914062 C786.27822266 20.58369141 787.35136719 20.54824219 788.45703125 20.51171875 C789.44678955 20.48553467 790.43654785 20.45935059 791.45629883 20.43237305 C794.44178215 19.92490679 794.93919406 19.07976211 797 17 C799.4519043 16.56762695 799.4519043 16.56762695 802.32421875 16.48828125 C803.35224609 16.45283203 804.38027344 16.41738281 805.43945312 16.38085938 C806.51130859 16.35830078 807.58316406 16.33574219 808.6875 16.3125 C810.31268555 16.26125977 810.31268555 16.26125977 811.97070312 16.20898438 C814.6470322 16.1264544 817.32303159 16.05732063 820 16 C819.67 15.01 819.34 14.02 819 13 C828.9 12.505 828.9 12.505 839 12 C838.67 11.01 838.34 10.02 838 9 C845.26 9 852.52 9 860 9 C860 8.01 860 7.02 860 6 C868.415 5.505 868.415 5.505 877 5 C877 4.01 877 3.02 877 2 C879.47923801 1.97314905 881.9581884 1.95323453 884.4375 1.9375 C885.14455078 1.92912109 885.85160156 1.92074219 886.58007812 1.91210938 C888.38693559 1.90346412 890.19387603 1.94779989 892 2 C893 3 893 3 893.09765625 5.06640625 C893.08025391 6.30197266 893.08025391 6.30197266 893.0625 7.5625 C893.05347656 8.38878906 893.04445313 9.21507812 893.03515625 10.06640625 C893.01775391 11.02353516 893.01775391 11.02353516 893 12 C891.68 12.33 890.36 12.66 889 13 C889 17.29 889 21.58 889 26 C888.01 25.67 887.02 25.34 886 25 C885.67 28.3 885.34 31.6 885 35 C883.68 35.33 882.36 35.66 881 36 C881 38.64 881 41.28 881 44 C880.34 44.33 879.68 44.66 879 45 C878.26924352 47.3140622 877.59861742 49.64828869 877 52 C876.01 52 875.02 52 874 52 C873.8453125 53.60875 873.8453125 53.60875 873.6875 55.25 C873.00397898 58.97829646 872.32532085 60.19023731 870 63 C869.835 63.70125 869.67 64.4025 869.5 65.125 C869 67 869 67 866 69 C865.27034634 71.56282742 865.27034634 71.56282742 865 74 C864.01 74 863.02 74 862 74 C861.67 75.32 861.34 76.64 861 78 C860.01 78 859.02 78 858 78 C858 80.31 858 82.62 858 85 C856.68 85.33 855.36 85.66 854 86 C853.67 87.32 853.34 88.64 853 90 C852.01 90 851.02 90 850 90 C850 91.32 850 92.64 850 94 C849.01 94 848.02 94 847 94 C846.67 96.31 846.34 98.62 846 101 C845.360625 101.103125 844.72125 101.20625 844.0625 101.3125 C843.381875 101.539375 842.70125 101.76625 842 102 C841.67 102.99 841.34 103.98 841 105 C840.34 105.33 839.68 105.66 839 106 C838.67 106.99 838.34 107.98 838 109 C836.515 109.495 836.515 109.495 835 110 C834.67 110.99 834.34 111.98 834 113 C833.01 113 832.02 113 831 113 C830.67 114.32 830.34 115.64 830 117 C829.01 117 828.02 117 827 117 C827 117.99 827 118.98 827 120 C825.68 120 824.36 120 823 120 C823 121.32 823 122.64 823 124 C821.68 124 820.36 124 819 124 C819 125.32 819 126.64 819 128 C817.68 128 816.36 128 815 128 C815 129.32 815 130.64 815 132 C814.360625 132.103125 813.72125 132.20625 813.0625 132.3125 C812.381875 132.539375 811.70125 132.76625 811 133 C810.67 133.99 810.34 134.98 810 136 C808.35 136 806.7 136 805 136 C805 136.99 805 137.98 805 139 C803.35 139 801.7 139 800 139 C800 140.32 800 141.64 800 143 C798.68 143 797.36 143 796 143 C796 144.32 796 145.64 796 147 C794.02 147.33 792.04 147.66 790 148 C789.67 148.99 789.34 149.98 789 151 C787.35 151 785.7 151 784 151 C784 152.32 784 153.64 784 155 C783.21625 155.103125 782.4325 155.20625 781.625 155.3125 C778.66954819 155.77595022 778.66954819 155.77595022 777 159 C774.375 159.1875 774.375 159.1875 772 159 C772 159.99 772 160.98 772 162 C770.02 162.33 768.04 162.66 766 163 C765.67 163.99 765.34 164.98 765 166 C762.69 166.33 760.38 166.66 758 167 C757.67 167.99 757.34 168.98 757 170 C754.69 170.33 752.38 170.66 750 171 C749.67 171.99 749.34 172.98 749 174 C746.69 174 744.38 174 742 174 C742 175.32 742 176.64 742 178 C738.92382812 178.29296875 738.92382812 178.29296875 735.84765625 178.5859375 C735.23792969 178.72257813 734.62820313 178.85921875 734 179 C733.67 179.66 733.34 180.32 733 181 C730.93359375 181.4140625 730.93359375 181.4140625 728.4375 181.625 C727.19806641 181.73714844 727.19806641 181.73714844 725.93359375 181.8515625 C725.29550781 181.90054688 724.65742187 181.94953125 724 182 C723.67 182.99 723.34 183.98 723 185 C719.7 185.66 716.4 186.32 713 187 C713 187.66 713 188.32 713 189 C708.71 189 704.42 189 700 189 C700 190.32 700 191.64 700 193 C695.71 193.33 691.42 193.66 687 194 C687 194.99 687 195.98 687 197 C685.85660156 197.04898438 684.71320312 197.09796875 683.53515625 197.1484375 C682.04424527 197.22345189 680.55336108 197.29900028 679.0625 197.375 C677.93038086 197.42140625 677.93038086 197.42140625 676.77539062 197.46875 C674.84492605 197.5726315 672.92057919 197.77895614 671 198 C670.67 198.66 670.34 199.32 670 200 C663.0514958 201.33625081 656.05129128 201.09674028 649 201 C649 201.99 649 202.98 649 204 C647.84213989 204.02187378 647.84213989 204.02187378 646.66088867 204.04418945 C643.16924907 204.11858033 639.6785751 204.2152709 636.1875 204.3125 C634.97255859 204.33505859 633.75761719 204.35761719 632.50585938 204.38085938 C631.34248047 204.41630859 630.17910156 204.45175781 628.98046875 204.48828125 C627.37014771 204.52755737 627.37014771 204.52755737 625.72729492 204.56762695 C622.97624165 204.71667089 622.97624165 204.71667089 621.60327148 206.5 C619.5287787 208.44086853 618.42818648 208.39214633 615.62036133 208.43237305 C614.73967484 208.45216721 613.85898834 208.47196136 612.95161438 208.49235535 C611.53117073 208.50194023 611.53117073 208.50194023 610.08203125 208.51171875 C609.10965012 208.52966995 608.13726898 208.54762115 607.13542175 208.56611633 C604.02782536 208.62032467 600.92038348 208.65414898 597.8125 208.6875 C595.70635866 208.72066376 593.60023773 208.75515253 591.49414062 208.79101562 C586.32953839 208.87605731 581.16498281 208.94281841 576 209 C575.67 209.99 575.34 210.98 575 212 C547.61 212.33 520.22 212.66 492 213 C491.67 213.66 491.34 214.32 491 215 C480.36038199 215.06944598 469.72081771 215.12278376 459.0810194 215.15543652 C454.14076431 215.17110654 449.20066403 215.19236918 444.26049805 215.22631836 C439.49483527 215.25886417 434.7293216 215.27684294 429.96355629 215.28463173 C428.14343225 215.29018384 426.32331657 215.30102552 424.50325584 215.31719017 C421.95796309 215.33890112 419.41329006 215.34196961 416.86791992 215.34057617 C416.11194519 215.351362 415.35597046 215.36214783 414.5770874 215.3732605 C412.47380066 215.36076355 412.47380066 215.36076355 409 215 C408.27590691 214.25886711 408.27590691 214.25886711 407.53718567 213.50276184 C404.85295839 210.87864531 401.09325984 211.58846376 397.53710938 211.61523438 C396.67342239 211.6098616 395.80973541 211.60448883 394.9198761 211.59895325 C393.043963 211.58916667 391.16800459 211.58623375 389.29206848 211.58930969 C386.32514745 211.59377802 383.35882594 211.57981605 380.39196777 211.56091309 C374.09465502 211.52408946 367.7974046 211.51041131 361.5 211.5 C354.2038642 211.48793752 346.90801953 211.46648374 339.61201477 211.41999817 C336.68536081 211.4063854 333.75907089 211.41060646 330.83239746 211.41540527 C329.04255707 211.40606774 327.25272075 211.39589969 325.46289062 211.38476562 C324.23781548 211.39398796 324.23781548 211.39398796 322.98799133 211.40339661 C317.40252617 211.34219869 317.40252617 211.34219869 315.23905945 209.50297546 C314.83016983 209.00699356 314.42128021 208.51101166 314 208 C311.97048789 207.53121363 311.97048789 207.53121363 309.7121582 207.56762695 C308.42115959 207.53793571 308.42115959 207.53793571 307.1040802 207.50764465 C306.17899155 207.50125473 305.25390289 207.49486481 304.30078125 207.48828125 C303.35059616 207.47033005 302.40041107 207.45237885 301.4214325 207.43388367 C298.38516687 207.37968107 295.34905933 207.34585296 292.3125 207.3125 C290.25453525 207.27933572 288.19659138 207.2448469 286.13867188 207.20898438 C281.09256181 207.1239488 276.04649944 207.05718502 271 207 C271 206.34 271 205.68 271 205 C270.3608667 204.97494385 269.7217334 204.9498877 269.06323242 204.92407227 C266.10453255 204.80642853 263.14602406 204.68448222 260.1875 204.5625 C259.18267578 204.52318359 258.17785156 204.48386719 257.14257812 204.44335938 C252.02400509 204.22939973 246.91016625 203.96595929 241.80078125 203.58984375 C240.90141846 203.52531006 240.00205566 203.46077637 239.07543945 203.39428711 C238.39054443 203.26417236 237.70564941 203.13405762 237 203 C236.67 202.34 236.34 201.68 236 201 C228.74 200.67 221.48 200.34 214 200 C213.67 199.01 213.34 198.02 213 197 C208.38 196.67 203.76 196.34 199 196 C199 195.01 199 194.02 199 193 C194.38 192.67 189.76 192.34 185 192 C184.67 191.01 184.34 190.02 184 189 C179.71 188.67 175.42 188.34 171 188 C171.33 187.01 171.66 186.02 172 185 C168.7 184.67 165.4 184.34 162 184 C161.67 183.01 161.34 182.02 161 181 C159.0509375 180.814375 159.0509375 180.814375 157.0625 180.625 C154.84765625 180.4140625 154.84765625 180.4140625 153 180 C152.67 179.34 152.34 178.68 152 178 C149.88153715 177.31270746 149.88153715 177.31270746 147.4375 176.875 C146.19806641 176.62363281 146.19806641 176.62363281 144.93359375 176.3671875 C144.29550781 176.24601563 143.65742188 176.12484375 143 176 C143 175.34 143 174.68 143 174 C140.69 173.67 138.38 173.34 136 173 C135.67 172.01 135.34 171.02 135 170 C132.69 169.67 130.38 169.34 128 169 C127.67 168.01 127.34 167.02 127 166 C125.35 165.67 123.7 165.34 122 165 C121.67 164.01 121.34 163.02 121 162 C118.69 161.67 116.38 161.34 114 161 C114 160.34 114 159.68 114 159 C113.030625 158.731875 112.06125 158.46375 111.0625 158.1875 C110.051875 157.795625 109.04125 157.40375 108 157 C107.67 156.01 107.34 155.02 107 154 C105.67696283 153.6278958 104.34262065 153.29369827 103 153 C102.67 152.34 102.34 151.68 102 151 C101.34 150.67 100.68 150.34 100 150 C98 149 98 149 97 147 C96.34 146.855625 95.68 146.71125 95 146.5625 C94.34 146.376875 93.68 146.19125 93 146 C92.67 145.01 92.34 144.02 92 143 C90.35 142.67 88.7 142.34 87 142 C87 141.01 87 140.02 87 139 C85.35 138.67 83.7 138.34 82 138 C81.67 137.01 81.34 136.02 81 135 C78.66796984 132.35703248 77.38326722 131.12775574 74 130 C74 129.01 74 128.02 74 127 C73.0409375 126.814375 73.0409375 126.814375 72.0625 126.625 C71.381875 126.41875 70.70125 126.2125 70 126 C69.67 125.34 69.34 124.68 69 124 C67.515 123.505 67.515 123.505 66 123 C66 121.68 66 120.36 66 119 C64.68 119 63.36 119 62 119 C62 117.68 62 116.36 62 115 C60.68 115 59.36 115 58 115 C58 113.68 58 112.36 58 111 C56.68 111 55.36 111 54 111 C54 109.68 54 108.36 54 107 C53.01 107 52.02 107 51 107 C49.5393715 104.35261084 49 103.10551666 49 100 C48.01 100 47.02 100 46 100 C46 98.68 46 97.36 46 96 C45.01 96 44.02 96 43 96 C42.67 95.01 42.34 94.02 42 93 C41.01 92.01 41.01 92.01 40 91 C38 89 38 89 37 86 C36.01 85.505 36.01 85.505 35 85 C34.855625 84.34 34.71125 83.68 34.5625 83 C34.376875 82.34 34.19125 81.68 34 81 C33.01 80.67 32.02 80.34 31 80 C31 77.69 31 75.38 31 73 C29.68 73 28.36 73 27 73 C26.71125 71.865625 26.4225 70.73125 26.125 69.5625 C25.75375 68.386875 25.3825 67.21125 25 66 C24.34 65.67 23.68 65.34 23 65 C23 63.68 23 62.36 23 61 C21.68 60.67 20.36 60.34 19 60 C19 58.02 19 56.04 19 54 C17.515 53.505 17.515 53.505 16 53 C15.87882812 52.28972656 15.75765625 51.57945312 15.6328125 50.84765625 C15.38144531 49.46900391 15.38144531 49.46900391 15.125 48.0625 C14.96257812 47.14597656 14.80015625 46.22945312 14.6328125 45.28515625 C14.42398438 44.53105469 14.21515625 43.77695312 14 43 C13.34 42.67 12.68 42.34 12 42 C12 39.36 12 36.72 12 34 C10.68 34 9.36 34 8 34 C7.34 30.7 6.68 27.4 6 24 C5.34 24.33 4.68 24.66 4 25 C4 20.38 4 15.76 4 11 C2.68 11 1.36 11 0 11 C0 7.37 0 3.74 0 0 Z M402 44 C402 44.33 402 44.66 402 45 C404.64 45 407.28 45 410 45 C410 44.67 410 44.34 410 44 C407.36 44 404.72 44 402 44 Z M448 44 C448 44.33 448 44.66 448 45 C450.31 45 452.62 45 455 45 C455 44.67 455 44.34 455 44 C452.69 44 450.38 44 448 44 Z " fill="#DC5E00" transform="translate(57,807)"/>
<path d="M0 0 C10.33333333 0 20.66666667 0 31 0 C31.33 0.66 31.66 1.32 32 2 C33.48995483 2.03758423 33.48995483 2.03758423 35.01000977 2.07592773 C38.72073674 2.17061449 42.43130302 2.27068163 46.1418457 2.37231445 C47.74304424 2.41543296 49.34428196 2.45712264 50.94555664 2.49731445 C53.25679291 2.55558091 55.56783613 2.61910785 57.87890625 2.68359375 C58.58648575 2.70030624 59.29406525 2.71701874 60.02308655 2.73423767 C64.41151722 2.86292217 68.68912353 3.14595518 73 4 C73.33 4.66 73.66 5.32 74 6 C83.9 6.33 93.8 6.66 104 7 C104.33 7.99 104.66 8.98 105 10 C110.94 10.33 116.88 10.66 123 11 C123.33 11.99 123.66 12.98 124 14 C130.27 14.33 136.54 14.66 143 15 C142.67 15.99 142.34 16.98 142 18 C147.28 18.33 152.56 18.66 158 19 C158 19.99 158 20.98 158 22 C162.29 22.33 166.58 22.66 171 23 C171.33 23.99 171.66 24.98 172 26 C175.96 26.495 175.96 26.495 180 27 C180.33 27.99 180.66 28.98 181 30 C181.78246094 30.04898438 182.56492187 30.09796875 183.37109375 30.1484375 C184.88896484 30.26058594 184.88896484 30.26058594 186.4375 30.375 C187.44683594 30.44460937 188.45617187 30.51421875 189.49609375 30.5859375 C190.32238281 30.72257812 191.14867187 30.85921875 192 31 C192.33 31.66 192.66 32.32 193 33 C194.89533342 33.46523063 194.89533342 33.46523063 197.0625 33.625 C199.0115625 33.810625 199.0115625 33.810625 201 34 C201.33 34.99 201.66 35.98 202 37 C204.31 37.33 206.62 37.66 209 38 C209.33 39.32 209.66 40.64 210 42 C212.64 42 215.28 42 218 42 C218 42.99 218 43.98 218 45 C220.31 45.33 222.62 45.66 225 46 C225.33 46.99 225.66 47.98 226 49 C228.31 49.33 230.62 49.66 233 50 C233.33 50.99 233.66 51.98 234 53 C236.01508358 53.73323796 236.01508358 53.73323796 238 54 C238 54.99 238 55.98 238 57 C238.78375 56.938125 239.5675 56.87625 240.375 56.8125 C241.24125 56.874375 242.1075 56.93625 243 57 C243.66 57.99 244.32 58.98 245 60 C247.56282742 60.72965366 247.56282742 60.72965366 250 61 C250 61.99 250 62.98 250 64 C251.98 64.33 253.96 64.66 256 65 C256 66.32 256 67.64 256 69 C257.32 69 258.64 69 260 69 C260 70.32 260 71.64 260 73 C261.65 73 263.3 73 265 73 C265 73.99 265 74.98 265 76 C266.32 76.33 267.64 76.66 269 77 C269 77.99 269 78.98 269 80 C270.98 80.33 272.96 80.66 275 81 C275 81.99 275 82.98 275 84 C275.61875 84.04125 276.2375 84.0825 276.875 84.125 C277.57625 84.41375 278.2775 84.7025 279 85 C279.70381157 86.98723268 280.3711811 88.98777953 281 91 C281.99 91.33 282.98 91.66 284 92 C284.66 92.99 285.32 93.98 286 95 C286.33 95 286.66 95 287 95 C287 96.65 287 98.3 287 100 C288.32 100 289.64 100 291 100 C291 101.32 291 102.64 291 104 C292.32 104 293.64 104 295 104 C295.33 106.31 295.66 108.62 296 111 C296.99 111.33 297.98 111.66 299 112 C299 112.66 299 113.32 299 114 C300.32 114.66 301.64 115.32 303 116 C303 117.98 303 119.96 303 122 C303.99 122.33 304.98 122.66 306 123 C307.17755913 125.94389782 307.03348696 126.89953913 306 130 C307.32 130.33 308.64 130.66 310 131 C310.12117187 131.71027344 310.24234375 132.42054688 310.3671875 133.15234375 C310.61855469 134.53099609 310.61855469 134.53099609 310.875 135.9375 C311.03742187 136.85402344 311.19984375 137.77054688 311.3671875 138.71484375 C311.57601562 139.46894531 311.78484375 140.22304687 312 141 C312.66 141.33 313.32 141.66 314 142 C314 145.63 314 149.26 314 153 C315.32 153.33 316.64 153.66 318 154 C318 159.94 318 165.88 318 172 C314.04 172 310.08 172 306 172 C306 171.01 306 170.02 306 169 C300.39 169 294.78 169 289 169 C289 167.68 289 166.36 289 165 C283.39 165 277.78 165 272 165 C271.67 164.01 271.34 163.02 271 162 C264.73 161.67 258.46 161.34 252 161 C251.67 160.01 251.34 159.02 251 158 C244.73 157.67 238.46 157.34 232 157 C231.67 156.01 231.34 155.02 231 154 C223.74 153.67 216.48 153.34 209 153 C208.67 152.01 208.34 151.02 208 150 C199.75 149.67 191.5 149.34 183 149 C183 148.34 183 147.68 183 147 C180.05587973 145.52793987 177.03714085 145.76192808 173.8046875 145.68359375 C173.09724396 145.66281265 172.38980042 145.64203156 171.66091919 145.62062073 C169.39904575 145.55518922 167.13705538 145.49627026 164.875 145.4375 C163.34243578 145.39430867 161.80988343 145.35069418 160.27734375 145.30664062 C156.51834927 145.19951445 152.75923708 145.0982291 149 145 C148.67 144.34 148.34 143.68 148 143 C145.70246721 142.54378951 145.70246721 142.54378951 142.890625 142.41015625 C141.80330078 142.33684082 140.71597656 142.26352539 139.59570312 142.18798828 C133.31582669 141.85966775 127.03536981 141.63016711 120.75 141.4375 C119.40754308 141.39415828 118.06509505 141.35053997 116.72265625 141.30664062 C113.4818473 141.20172235 110.24097723 141.09955985 107 141 C106.67 140.34 106.34 139.68 106 139 C70.00269474 138.06468007 34.01669014 137.78304546 -1.9906286 137.76117182 C-9.73379036 137.75638417 -17.47678319 137.73850169 -25.21989387 137.7101047 C-31.30833963 137.68856489 -37.39673701 137.67840695 -43.48522049 137.67706418 C-47.08514521 137.67602056 -50.6849046 137.67019384 -54.28478813 137.65224457 C-58.24257105 137.63285032 -62.20012941 137.63702059 -66.15795898 137.64355469 C-67.33613693 137.6343399 -68.51431488 137.62512512 -69.72819519 137.6156311 C-70.79604248 137.62120026 -71.86388977 137.62676941 -72.96409607 137.63250732 C-74.35917216 137.63030748 -74.35917216 137.63030748 -75.7824316 137.6280632 C-76.88012796 137.81217192 -76.88012796 137.81217192 -78 138 C-78.66 138.99 -79.32 139.98 -80 141 C-81.94888306 141.39872742 -81.94888306 141.39872742 -84.35791016 141.43237305 C-85.25869293 141.45216721 -86.15947571 141.47196136 -87.08755493 141.49235535 C-88.06155243 141.49874527 -89.03554993 141.50513519 -90.0390625 141.51171875 C-91.03505463 141.52966995 -92.03104675 141.54762115 -93.05722046 141.56611633 C-96.24643689 141.62040998 -99.43550209 141.65417617 -102.625 141.6875 C-104.78387531 141.72065624 -106.9427306 141.75514429 -109.1015625 141.79101562 C-114.40090603 141.876147 -119.70026869 141.94441575 -125 142 C-125.33 142.99 -125.66 143.98 -126 145 C-141.345 145.495 -141.345 145.495 -157 146 C-157.33 146.99 -157.66 147.98 -158 149 C-171.365 149.495 -171.365 149.495 -185 150 C-185.33 150.66 -185.66 151.32 -186 152 C-192.93 152.33 -199.86 152.66 -207 153 C-207.33 153.99 -207.66 154.98 -208 156 C-217.9 156.495 -217.9 156.495 -228 157 C-228.33 157.99 -228.66 158.98 -229 160 C-234.61 160.33 -240.22 160.66 -246 161 C-246 161.99 -246 162.98 -246 164 C-251.61 164.33 -257.22 164.66 -263 165 C-263.33 165.66 -263.66 166.32 -264 167 C-268.96098482 168.24024621 -273.92441192 168.10151176 -279 168 C-279 168.99 -279 169.98 -279 171 C-282.96 171 -286.92 171 -291 171 C-291 165.72 -291 160.44 -291 155 C-290.34 155 -289.68 155 -289 155 C-287.9458482 151.83754459 -287.68724328 149.13051782 -287.4375 145.8125 C-287.35371094 144.72582031 -287.26992188 143.63914062 -287.18359375 142.51953125 C-287.12300781 141.68808594 -287.06242188 140.85664063 -287 140 C-286.34 140 -285.68 140 -285 140 C-284.34 136.7 -283.68 133.4 -283 130 C-281.68 129.67 -280.36 129.34 -279 129 C-279 126.69 -279 124.38 -279 122 C-277.515 121.505 -277.515 121.505 -276 121 C-276 119.02 -276 117.04 -276 115 C-275.0409375 114.5978125 -275.0409375 114.5978125 -274.0625 114.1875 C-271.66868314 113.11332248 -271.66868314 113.11332248 -271 110 C-270.01 110 -269.02 110 -268 110 C-268 107.69 -268 105.38 -268 103 C-266.515 102.505 -266.515 102.505 -265 102 C-264.505 100.515 -264.505 100.515 -264 99 C-262.68 99 -261.36 99 -260 99 C-260 97.35 -260 95.7 -260 94 C-259.01 94 -258.02 94 -257 94 C-257 93.01 -257 92.02 -257 91 C-256.01 90.67 -255.02 90.34 -254 90 C-253.505 88.515 -253.505 88.515 -253 87 C-252.01 86.67 -251.02 86.34 -250 86 C-249.505 84.515 -249.505 84.515 -249 83 C-248.01 82.67 -247.02 82.34 -246 82 C-245.505 80.515 -245.505 80.515 -245 79 C-244.01 78.67 -243.02 78.34 -242 78 C-241.01 76.515 -241.01 76.515 -240 75 C-239.34 75 -238.68 75 -238 75 C-238 74.01 -238 73.02 -238 72 C-236.35 72 -234.7 72 -233 72 C-233 70.68 -233 69.36 -233 68 C-231.68 68 -230.36 68 -229 68 C-229 66.68 -229 65.36 -229 64 C-226.03 63.505 -226.03 63.505 -223 63 C-222.67 62.01 -222.34 61.02 -222 60 C-220.35 60 -218.7 60 -217 60 C-217 59.01 -217 58.02 -217 57 C-215.02 56.34 -213.04 55.68 -211 55 C-211 54.34 -211 53.68 -211 53 C-209.35 52.67 -207.7 52.34 -206 52 C-205.67 51.01 -205.34 50.02 -205 49 C-202.69 49 -200.38 49 -198 49 C-198 47.68 -198 46.36 -198 45 C-195.36 45 -192.72 45 -190 45 C-190 43.68 -190 42.36 -190 41 C-188.329375 40.8453125 -188.329375 40.8453125 -186.625 40.6875 C-185.42875 40.460625 -184.2325 40.23375 -183 40 C-182.34 39.01 -181.68 38.02 -181 37 C-177.375 36.8125 -177.375 36.8125 -174 37 C-174 36.01 -174 35.02 -174 34 C-169.05 33.505 -169.05 33.505 -164 33 C-163.67 32.01 -163.34 31.02 -163 30 C-159.7 29.67 -156.4 29.34 -153 29 C-153 28.01 -153 27.02 -153 26 C-149.7 25.67 -146.4 25.34 -143 25 C-142.67 24.01 -142.34 23.02 -142 22 C-141.08476562 21.96261719 -140.16953125 21.92523438 -139.2265625 21.88671875 C-138.03804687 21.82097656 -136.84953125 21.75523437 -135.625 21.6875 C-134.44164062 21.62949219 -133.25828125 21.57148438 -132.0390625 21.51171875 C-131.03617188 21.34285156 -130.03328125 21.17398438 -129 21 C-128.01 19.515 -128.01 19.515 -127 18 C-124.43359375 17.55859375 -124.43359375 17.55859375 -121.4375 17.4375 C-118.52225366 17.35410416 -118.52225366 17.35410416 -116 17 C-115.67 16.34 -115.34 15.68 -115 15 C-113.19402344 14.92652344 -113.19402344 14.92652344 -111.3515625 14.8515625 C-109.77601802 14.77653657 -108.20049834 14.70098867 -106.625 14.625 C-105.8309375 14.5940625 -105.036875 14.563125 -104.21875 14.53125 C-99.63332625 14.48183579 -99.63332625 14.48183579 -96 12 C-96 11.67 -96 11.34 -96 11 C-94.19402344 10.92652344 -94.19402344 10.92652344 -92.3515625 10.8515625 C-90.77601802 10.77653657 -89.20049834 10.70098867 -87.625 10.625 C-86.8309375 10.5940625 -86.036875 10.563125 -85.21875 10.53125 C-80.63332625 10.48183579 -80.63332625 10.48183579 -77 8 C-77 7.67 -77 7.34 -77 7 C-76.10168457 6.98541748 -75.20336914 6.97083496 -74.27783203 6.95581055 C-70.9489341 6.89480303 -67.62087117 6.82066372 -64.29248047 6.73754883 C-62.85118658 6.70426822 -61.40976137 6.67624596 -59.96826172 6.65356445 C-57.89754203 6.6200738 -55.82802907 6.567767 -53.7578125 6.51171875 C-52.5114502 6.48553467 -51.26508789 6.45935059 -49.98095703 6.43237305 C-48.99724121 6.28968994 -48.01352539 6.14700684 -47 6 C-46.34 5.01 -45.68 4.02 -45 3 C-43.08908081 2.60127258 -43.08908081 2.60127258 -40.73388672 2.56762695 C-39.85312469 2.54783279 -38.97236267 2.52803864 -38.06491089 2.50764465 C-37.11278717 2.50125473 -36.16066345 2.49486481 -35.1796875 2.48828125 C-34.20589142 2.47033005 -33.23209534 2.45237885 -32.22879028 2.43388367 C-29.11090458 2.37959368 -25.99317355 2.34582509 -22.875 2.3125 C-20.7643013 2.27934343 -18.65362306 2.24485534 -16.54296875 2.20898438 C-11.36211788 2.12385693 -6.18124743 2.05558664 -1 2 C-0.67 1.34 -0.34 0.68 0 0 Z " fill="#DC5E00" transform="translate(491,115)"/>
<path d="M0 0 C9.24 0 18.48 0 28 0 C28.33 0.66 28.66 1.32 29 2 C32.09475695 2.43874205 32.09475695 2.43874205 35.84375 2.5625 C36.52804077 2.59931885 37.21233154 2.6361377 37.9173584 2.67407227 C40.11121412 2.79188836 42.30538353 2.89738957 44.5 3 C47.38610583 3.13494137 50.27117259 3.28226595 53.15625 3.4375 C55.08694336 3.52837891 55.08694336 3.52837891 57.05664062 3.62109375 C58.02794922 3.74613281 58.99925781 3.87117187 60 4 C60.33 4.66 60.66 5.32 61 6 C63.71446979 6.31241455 66.33909361 6.51336592 69.0625 6.625 C69.82111328 6.66367188 70.57972656 6.70234375 71.36132812 6.7421875 C73.24047195 6.83673562 75.12020336 6.91946756 77 7 C77.33 7.99 77.66 8.98 78 10 C84.93 10.495 84.93 10.495 92 11 C92 11.99 92 12.98 92 14 C97.445 14.495 97.445 14.495 103 15 C103 16.32 103 17.64 103 19 C105.97 19 108.94 19 112 19 C112 19.99 112 20.98 112 22 C113.093125 22.103125 114.18625 22.20625 115.3125 22.3125 C119.14506729 23.02704644 119.56221639 23.3405997 122 26 C123.66194453 26.35613097 125.328451 26.69208308 127 27 C127.33 27.66 127.66 28.32 128 29 C129.2375 29.495 129.2375 29.495 130.5 30 C133 31 133 31 134 33 C136.52733235 33.65555119 136.52733235 33.65555119 139 34 C139 35.32 139 36.64 139 38 C140.65 38 142.3 38 144 38 C144.33 38.99 144.66 39.98 145 41 C145.66 41.165 146.32 41.33 147 41.5 C147.66 41.665 148.32 41.83 149 42 C149.33 42.99 149.66 43.98 150 45 C150.99 45.33 151.98 45.66 153 46 C153.33 46.99 153.66 47.98 154 49 C154.99 49.33 155.98 49.66 157 50 C157.33 50.99 157.66 51.98 158 53 C158.99 53.33 159.98 53.66 161 54 C161 54.99 161 55.98 161 57 C161.99 57 162.98 57 164 57 C164.33 57.99 164.66 58.98 165 60 C167.00016466 61.20882096 167.00016466 61.20882096 169 62 C169 64.31 169 66.62 169 69 C170.32 69.33 171.64 69.66 173 70 C173.33 71.65 173.66 73.3 174 75 C174.99 75 175.98 75 177 75 C177.1953125 77.05078125 177.390625 79.1015625 177.5859375 81.15234375 C177.72257812 81.76207031 177.85921875 82.37179688 178 83 C178.66 83.33 179.32 83.66 180 84 C180 86.64 180 89.28 180 92 C181.32 92 182.64 92 184 92 C184 95.96 184 99.92 184 104 C184.66 104 185.32 104 186 104 C188 106 188 106 188.1953125 109.6953125 C188.182009 111.17200108 188.15814835 112.64862358 188.125 114.125 C188.11597656 114.87910156 188.10695313 115.63320312 188.09765625 116.41015625 C188.0740687 118.27357254 188.03819719 120.13682593 188 122 C184.37 122 180.74 122 177 122 C176.67 121.01 176.34 120.02 176 119 C170.72 119 165.44 119 160 119 C160 118.01 160 117.02 160 116 C153.07 115.505 153.07 115.505 146 115 C146 114.01 146 113.02 146 112 C135.11 111.505 135.11 111.505 124 111 C124 110.01 124 109.02 124 108 C115.75 107.67 107.5 107.34 99 107 C98.67 106.01 98.34 105.02 98 104 C87.11 103.67 76.22 103.34 65 103 C65 102.01 65 101.02 65 100 C51.99616434 99.9768686 38.99233354 99.95908082 25.98848152 99.94818783 C19.95080974 99.94296076 13.91315199 99.93586627 7.87548828 99.92456055 C2.05297583 99.91372546 -3.76952308 99.90772184 -9.59204483 99.90512276 C-11.81768126 99.90326963 -14.04331691 99.89965117 -16.2689476 99.89426994 C-19.37706882 99.8870513 -22.48513352 99.88600941 -25.59326172 99.88647461 C-26.52114502 99.88287933 -27.44902832 99.87928406 -28.4050293 99.87557983 C-29.6712764 99.87764183 -29.6712764 99.87764183 -30.96310425 99.87974548 C-32.06649045 99.87836279 -32.06649045 99.87836279 -33.19216728 99.87695217 C-35.10169843 99.89024764 -35.10169843 99.89024764 -37 101 C-36.67 101.66 -36.34 102.32 -36 103 C-48.87 103.33 -61.74 103.66 -75 104 C-75 104.99 -75 105.98 -75 107 C-86.385 107.495 -86.385 107.495 -98 108 C-98.33 108.66 -98.66 109.32 -99 110 C-102.37653644 110.29837403 -105.71077953 110.41601614 -109.09765625 110.47851562 C-113.43566699 110.64049963 -115.02668008 111.01895717 -118 114 C-120.79251583 114.37674518 -123.38779201 114.60191941 -126.1875 114.6875 C-126.93708984 114.72166016 -127.68667969 114.75582031 -128.45898438 114.79101562 C-130.30546838 114.87334294 -132.15270994 114.93835281 -134 115 C-134.33 115.99 -134.66 116.98 -135 118 C-139.62 118.33 -144.24 118.66 -149 119 C-148.67 119.99 -148.34 120.98 -148 122 C-151.96 122 -155.92 122 -160 122 C-160 117.05 -160 112.1 -160 107 C-159.01 107 -158.02 107 -157 107 C-157.02320313 106.09636719 -157.04640625 105.19273438 -157.0703125 104.26171875 C-157.08835937 103.08222656 -157.10640625 101.90273437 -157.125 100.6875 C-157.14820313 99.51574219 -157.17140625 98.34398438 -157.1953125 97.13671875 C-157 94 -157 94 -155 91 C-154.34 91 -153.68 91 -153 91 C-153 88.69 -153 86.38 -153 84 C-152.01 83.505 -152.01 83.505 -151 83 C-150.31270746 80.88153715 -150.31270746 80.88153715 -149.875 78.4375 C-149.70742188 77.61121094 -149.53984375 76.78492187 -149.3671875 75.93359375 C-149.24601562 75.29550781 -149.12484375 74.65742187 -149 74 C-148.67 74.66 -148.34 75.32 -148 76 C-147.34 76 -146.68 76 -146 76 C-145.67 73.69 -145.34 71.38 -145 69 C-143.02 68.505 -143.02 68.505 -141 68 C-141 66.68 -141 65.36 -141 64 C-140.01 64 -139.02 64 -138 64 C-137.7834375 62.824375 -137.7834375 62.824375 -137.5625 61.625 C-137 59 -137 59 -136 57 C-135.01 57 -134.02 57 -133 57 C-133 55.68 -133 54.36 -133 53 C-131.68 53 -130.36 53 -129 53 C-129 51.68 -129 50.36 -129 49 C-127.68 49 -126.36 49 -125 49 C-125 47.68 -125 46.36 -125 45 C-123.68 45 -122.36 45 -121 45 C-121 44.01 -121 43.02 -121 42 C-120.401875 41.731875 -119.80375 41.46375 -119.1875 41.1875 C-116.95732387 40.11977597 -116.95732387 40.11977597 -115.4375 38.375 C-114 37 -114 37 -111 37 C-111 36.01 -111 35.02 -111 34 C-109.35 34 -107.7 34 -106 34 C-105.67 32.68 -105.34 31.36 -105 30 C-102.69 30 -100.38 30 -98 30 C-98 28.68 -98 27.36 -98 26 C-96.02 26 -94.04 26 -92 26 C-91.67 24.68 -91.34 23.36 -91 22 C-88.69 22 -86.38 22 -84 22 C-84 21.01 -84 20.02 -84 19 C-80.7 18.67 -77.4 18.34 -74 18 C-74 17.01 -74 16.02 -74 15 C-70.7 14.67 -67.4 14.34 -64 14 C-63.67 13.01 -63.34 12.02 -63 11 C-58.38 10.67 -53.76 10.34 -49 10 C-49.495 8.515 -49.495 8.515 -50 7 C-43.73 6.67 -37.46 6.34 -31 6 C-31 5.01 -31 4.02 -31 3 C-21.1 2.67 -11.2 2.34 -1 2 C-0.67 1.34 -0.34 0.68 0 0 Z " fill="#DC5E00" transform="translate(491,0)"/>
<path d="" fill="#DC5F00" transform="translate(0,0)"/>
</svg>
