<svg xmlns="http://www.w3.org/2000/svg" version="1.1" xmlns:xlink="http://www.w3.org/1999/xlink" xmlns:svgjs="http://svgjs.dev/svgjs" width="1500" height="268" viewBox="0 0 1500 268"><g transform="matrix(1,0,0,1,-0.9090909090909918,-1.810665350937029)"><svg viewBox="0 0 396 71" data-background-color="#ffffff" preserveAspectRatio="xMidYMid meet" height="268" width="1500" xmlns="http://www.w3.org/2000/svg" xmlns:xlink="http://www.w3.org/1999/xlink"><g id="tight-bounds" transform="matrix(1,0,0,1,0.2400000000000091,0.47969119371839497)"><svg viewBox="0 0 395.52 70.04061761256324" height="70.04061761256324" width="395.52"><g><svg viewBox="0 0 395.52 70.04061761256324" height="70.04061761256324" width="395.52"><g><svg viewBox="0 0 497.5688537678243 88.11192815198619" height="70.04061761256324" width="395.52"><g transform="matrix(1,0,0,1,102.04885376782428,12.17755302245251)"><svg viewBox="0 0 395.52 63.75682210708117" height="63.75682210708117" width="395.52"><g id="textblocktransform"><svg viewBox="0 0 395.52 63.75682210708117" height="63.75682210708117" width="395.52" id="textblock"><g><svg viewBox="0 0 395.52 63.75682210708117" height="63.75682210708117" width="395.52"><g transform="matrix(1,0,0,1,0,0)"><svg width="395.52" viewBox="2 -41.5 260.53 42" height="63.75682210708117" data-palette-color="#dc5f00"><path d="M32.75 0L21.5 0Q21.8-7.35 21.8-13.55L21.8-13.55Q21.8-15.75 20.73-17.05 19.65-18.35 18-18.35L18-18.35Q16.25-18.35 15.03-16.65 13.8-14.95 13.8-12L13.8-12 13.75-12.1Q13.75-3.95 13.95 0L13.95 0 2 0Q2.4-7.2 2.4-19.5L2.4-19.5Q2.4-31.8 2-39L2-39 13.9-39 13.95-23.6 13.9-20.95Q15.1-24.45 17.48-26.13 19.85-27.8 22.85-27.8L22.85-27.8Q25.85-27.8 28.05-26.48 30.25-25.15 31.38-22.9 32.5-20.65 32.5-17.85L32.5-17.85 32.5-10.65Q32.5-4 32.75 0L32.75 0ZM43.45-30.25Q40.3-30.25 38.77-31.8 37.25-33.35 37.25-35.85L37.25-35.85Q37.25-38.3 38.77-39.9 40.3-41.5 43.45-41.5L43.45-41.5Q46.45-41.5 48.05-39.88 49.65-38.25 49.65-35.85L49.65-35.85Q49.65-33.35 48.1-31.8 46.55-30.25 43.45-30.25L43.45-30.25ZM49.55 0L37.65 0Q38-8.05 38-13.3L38-13.3Q38-19.55 37.6-27.3L37.6-27.3 49.6-27.3Q49.2-19.85 49.2-13.3L49.2-13.3Q49.2-7.8 49.55 0L49.55 0ZM75.45-27.3L87.05-27.3Q81.65-12.75 77.45 0L77.45 0 61.8 0Q57.3-13.65 52.15-27.3L52.15-27.3 63.9-27.3 69.7-6.7 75.45-27.3ZM119.19-12.5L112.99-12.5 96.69-12.5Q97.09-10.3 98.67-8.93 100.24-7.55 103.14-7.55L103.14-7.55Q105.24-7.55 107.09-8.38 108.94-9.2 110.04-10.7L110.04-10.7Q113.39-9.05 118.94-7.15L118.94-7.15Q117.39-3.65 113.32-1.58 109.24 0.5 102.69 0.5L102.69 0.5Q94.19 0.5 90.12-3.43 86.04-7.35 86.04-13.75L86.04-13.75Q86.04-20 90.09-23.9 94.14-27.8 102.69-27.8L102.69-27.8Q107.79-27.8 111.54-26.1 115.29-24.4 117.29-21.38 119.29-18.35 119.29-14.45L119.29-14.45Q119.29-13.15 119.19-12.5L119.19-12.5ZM103.39-20.25Q100.89-20.25 99.29-19.3 97.69-18.35 97.04-16.7L97.04-16.7 108.84-16.7Q108.24-18.3 106.89-19.28 105.54-20.25 103.39-20.25L103.39-20.25ZM173.19 0L161.54 0Q161.94-6.55 161.94-13.55L161.94-13.55Q161.94-15.8 160.82-17.07 159.69-18.35 157.84-18.35L157.84-18.35Q156.14-18.35 154.92-16.85 153.69-15.35 153.69-12.5L153.69-12.5 153.69-12.55Q153.69-3.7 153.94 0L153.94 0 142.69 0Q142.99-7.35 142.99-13.55L142.99-13.55Q142.99-15.75 141.92-17.05 140.84-18.35 139.19-18.35L139.19-18.35Q137.44-18.35 136.27-16.88 135.09-15.4 134.89-12.85L134.89-12.85Q134.79-9.05 134.79-7.45L134.79-7.45Q134.79-4.05 134.99 0L134.99 0 123.04 0Q123.44-7.2 123.44-13.6L123.44-13.6Q123.44-20 123.04-27.3L123.04-27.3Q126.34-27.15 128.09-27.15L128.09-27.15Q129.94-27.15 133.14-27.3L133.14-27.3 134.64-19.9Q135.79-23.95 138.29-25.88 140.79-27.8 144.04-27.8L144.04-27.8Q147.94-27.8 150.42-25.65 152.89-23.5 153.49-20.05L153.49-20.05Q154.64-23.6 157.34-25.7 160.04-27.8 163.49-27.8L163.49-27.8Q167.99-27.8 170.54-24.78 173.09-21.75 173.09-16.5L173.09-16.5 173.09-8.2Q173.09-2.55 173.19 0L173.19 0ZM184.39-30.25Q181.24-30.25 179.71-31.8 178.19-33.35 178.19-35.85L178.19-35.85Q178.19-38.3 179.71-39.9 181.24-41.5 184.39-41.5L184.39-41.5Q187.39-41.5 188.99-39.88 190.59-38.25 190.59-35.85L190.59-35.85Q190.59-33.35 189.04-31.8 187.49-30.25 184.39-30.25L184.39-30.25ZM190.49 0L178.59 0Q178.94-8.05 178.94-13.3L178.94-13.3Q178.94-19.55 178.54-27.3L178.54-27.3 190.54-27.3Q190.14-19.85 190.14-13.3L190.14-13.3Q190.14-7.8 190.49 0L190.49 0ZM225.84 0L214.59 0Q214.89-7.35 214.89-13.55L214.89-13.55Q214.89-15.75 213.81-17.05 212.74-18.35 211.09-18.35L211.09-18.35Q209.44-18.35 208.29-16.88 207.14-15.4 206.94-12.85L206.94-12.85Q206.84-9.05 206.84-7.45L206.84-7.45Q206.84-4.05 207.04 0L207.04 0 195.09 0Q195.49-7.2 195.49-13.6L195.49-13.6Q195.49-20 195.09-27.3L195.09-27.3Q198.39-27.15 200.14-27.15L200.14-27.15Q201.99-27.15 205.19-27.3L205.19-27.3 206.64-19.95Q207.79-23.95 210.24-25.88 212.69-27.8 215.94-27.8L215.94-27.8Q218.94-27.8 221.14-26.48 223.34-25.15 224.46-22.9 225.59-20.65 225.59-17.85L225.59-17.85 225.59-10.65Q225.59-4 225.84 0L225.84 0ZM262.53-38.9Q262.23-29.6 262.23-19.45L262.23-19.45Q262.23-9.4 262.53 0L262.53 0 251.23 0 251.38-6Q249.93-2.65 247.18-1.07 244.43 0.5 240.68 0.5L240.68 0.5Q237.43 0.5 234.83-1.35 232.23-3.2 230.78-6.38 229.33-9.55 229.33-13.35L229.33-13.35Q229.33-17.1 230.78-20.43 232.23-23.75 234.86-25.78 237.48-27.8 240.83-27.8L240.83-27.8Q244.73-27.8 247.51-26.18 250.28-24.55 251.63-21.15L251.63-21.15Q251.63-24 251.43-30.3L251.43-30.3Q251.23-36.4 251.23-38.9L251.23-38.9 262.53-38.9ZM245.93-7.9Q248.38-7.9 249.93-9.28 251.48-10.65 251.48-13.65L251.48-13.65Q251.48-16.3 249.93-17.55 248.38-18.8 246.03-18.8L246.03-18.8Q243.78-18.8 242.26-17.38 240.73-15.95 240.73-13.65L240.73-13.65Q240.73-11.1 242.13-9.5 243.53-7.9 245.93-7.9L245.93-7.9Z" opacity="1" transform="matrix(1,0,0,1,0,0)" fill="#dc5f00" class="wordmark-text-0" data-fill-palette-color="primary" id="text-0"></path></svg></g></svg></g></svg></g></svg></g><g><svg viewBox="0 0 86.997398232073 88.11192815198619" height="88.11192815198619" width="86.997398232073"><g><svg xmlns="http://www.w3.org/2000/svg" xmlns:xlink="http://www.w3.org/1999/xlink" version="1.0" x="0" y="0" viewBox="5.940126654064271 5.538 87.79974669187146 88.92455555555556" enable-background="new 0 0 100 100" xml:space="preserve" height="88.11192815198619" width="86.997398232073" class="icon-icon-0" data-fill-palette-color="accent" id="icon-0"><path d="M76.288 30.05S76.283 16.487 49.84 15.6C23.397 16.487 23.392 30.05 23.392 30.05S47.421 22.857 76.288 30.05" fill="#dc5f00" data-fill-palette-color="accent"></path><path d="M93.017 60.026C90.627 53.335 85.668 48.824 66.41 47.28 48.018 45.807 33.27 47.28 33.27 47.28 13.992 48.555 9.053 53.335 6.663 60.026S8.575 72.135 8.575 72.135 9.582 73.489 13.255 74.265C15.22 74.682 25 76.547 39.55 77.182 38.475 71.854 36.507 56.436 49.84 56.831 63.133 56.438 61.217 71.762 60.14 77.132A216 216 0 0 0 86.425 74.267S89.343 74.006 91.105 72.135C91.105 72.135 95.407 66.718 93.017 60.026" fill="#dc5f00" data-fill-palette-color="accent"></path><path d="M47.29 80.26C23.234 79.623 10.966 76.277 10.966 76.277S13.674 92.528 34.864 93.803C34.864 93.803 48.954 95.287 64.816 93.803 85.952 91.826 88.715 76.277 88.715 76.277S76.447 79.623 52.389 80.26z" fill="#dc5f00" data-fill-palette-color="accent"></path><path d="M86.325 48.236S87.918 38.2 78.36 32.782C78.359 32.782 69.267 28.44 49.84 29.118 31.388 28.56 21.321 32.782 21.321 32.782 11.761 38.199 13.355 48.236 13.355 48.236S49.612 38.398 86.325 48.236" fill="#dc5f00" data-fill-palette-color="accent"></path><path d="M64.816 15.575S64.816 6.335 50.636 5.538H49.044C34.863 6.334 34.863 15.575 34.863 15.575S48.418 10.955 64.817 15.575" fill="#dc5f00" data-fill-palette-color="accent"></path></svg></g></svg></g></svg></g></svg></g><defs></defs></svg><rect width="395.52" height="70.04061761256324" fill="none" stroke="none" visibility="hidden"></rect></g></svg></g></svg>